<svg width="24" height="25" viewBox="0 0 24 25" fill="none" xmlns="http://www.w3.org/2000/svg">
<path d="M12 9.5C12.7956 9.5 13.5587 9.81607 14.1213 10.3787C14.6839 10.9413 15 11.7044 15 12.5C15 13.2956 14.6839 14.0587 14.1213 14.6213C13.5587 15.1839 12.7956 15.5 12 15.5C11.2044 15.5 10.4413 15.1839 9.87868 14.6213C9.31607 14.0587 9 13.2956 9 12.5C9 11.7044 9.31607 10.9413 9.87868 10.3787C10.4413 9.81607 11.2044 9.5 12 9.5ZM12 5C17 5 21.27 8.11 23 12.5C21.27 16.89 17 20 12 20C7 20 2.73 16.89 1 12.5C2.73 8.11 7 5 12 5ZM3.18 12.5C3.98825 14.1503 5.24331 15.5407 6.80248 16.5133C8.36165 17.4858 10.1624 18.0013 12 18.0013C13.8376 18.0013 15.6383 17.4858 17.1975 16.5133C18.7567 15.5407 20.0117 14.1503 20.82 12.5C20.0117 10.8497 18.7567 9.45925 17.1975 8.48675C15.6383 7.51424 13.8376 6.99868 12 6.99868C10.1624 6.99868 8.36165 7.51424 6.80248 8.48675C5.24331 9.45925 3.98825 10.8497 3.18 12.5Z" fill="black"/>
</svg>
