<svg width="46" height="48" viewBox="0 0 46 48" fill="none" xmlns="http://www.w3.org/2000/svg">
<g clip-path="url(#clip0_728_1418)">
<path d="M46 24C46 10.7453 35.7024 0 23 0C10.2976 0 0 10.7453 0 24C0 35.255 7.42624 44.6995 17.4441 47.2934V31.3344H12.7015V24H17.4441V20.8397C17.4441 12.671 20.987 8.8848 28.6727 8.8848C30.13 8.8848 32.6444 9.18336 33.6729 9.48096V16.129C33.1301 16.0694 32.1871 16.0397 31.016 16.0397C27.2449 16.0397 25.7876 17.5306 25.7876 21.4061V24H33.3003L32.0096 31.3344H25.7876V47.8243C37.1763 46.3891 46.0009 36.2707 46.0009 24H46Z" fill="#081CFF"/>
<path d="M32.0073 31.3344L33.298 24H25.7853V21.406C25.7853 17.5305 27.2426 16.0396 31.0137 16.0396C32.1848 16.0396 33.1278 16.0694 33.6706 16.1289V9.48093C32.6421 9.18237 30.1277 8.88477 28.6704 8.88477C20.9847 8.88477 17.4418 12.671 17.4418 20.8396V24H12.6992V31.3344H17.4418V47.2934C19.2211 47.7542 21.0823 48 22.9977 48C23.9407 48 24.8708 47.9395 25.7844 47.8243V31.3344H32.0063H32.0073Z" fill="white"/>
</g>
<defs>
<clipPath id="clip0_728_1418">
<rect width="46" height="48" fill="white"/>
</clipPath>
</defs>
</svg>
